<?xml version="1.0" encoding="iso-8859-1"?>
<!-- Generator: Adobe Illustrator 16.0.0, SVG Export Plug-In . SVG Version: 6.00 Build 0)  -->
<!DOCTYPE svg PUBLIC "-//W3C//DTD SVG 1.1//EN" "http://www.w3.org/Graphics/SVG/1.1/DTD/svg11.dtd">
<svg version="1.1" id="Capa_1" xmlns="http://www.w3.org/2000/svg" xmlns:xlink="http://www.w3.org/1999/xlink" x="0px" y="0px"
	 width="39.79px" height="39.79px" viewBox="0 0 39.79 39.79" style="enable-background:new 0 0 39.79 39.79;" xml:space="preserve"
	>
<g>
	<path d="M6.871,20.677c0.051,0.118,0.061,0.252,0.035,0.403c-0.035,0.181-0.113,0.321-0.236,0.433
		c-0.125,0.108-0.262,0.17-0.413,0.184c-0.151,0.014-0.335,0-0.554-0.039l-0.374-0.072c-0.125-0.021-0.199-0.045-0.226-0.062
		c-0.025-0.018-0.041-0.045-0.047-0.082c-0.003-0.026,0.009-0.123,0.034-0.278l0.207-1.108l0.665,0.123
		c0.292,0.055,0.502,0.12,0.634,0.2C6.728,20.457,6.818,20.558,6.871,20.677z M6.905,18.338c-0.119-0.063-0.342-0.127-0.672-0.188
		l-0.562-0.105l-0.234,1.25L6,19.401c0.293,0.054,0.516,0.068,0.667,0.045c0.15-0.02,0.268-0.075,0.359-0.161
		c0.087-0.084,0.146-0.192,0.17-0.324c0.026-0.135,0.014-0.256-0.037-0.364C7.111,18.491,7.027,18.407,6.905,18.338z M11.891,19.896
		c0,3.283-2.663,5.944-5.946,5.944C2.662,25.84,0,23.179,0,19.896c0-3.285,2.662-5.945,5.945-5.945
		C9.228,13.95,11.891,16.611,11.891,19.896z M8.392,18.325c-0.102-0.22-0.271-0.404-0.504-0.559
		c-0.089-0.061-0.203-0.112-0.327-0.161l0.169-0.903L6.862,16.54l-0.159,0.844l-0.558-0.105l0.159-0.843l-0.869-0.164l-0.16,0.847
		l-1.326-0.25l-0.132,0.709l0.203,0.041c0.135,0.021,0.225,0.053,0.267,0.088c0.044,0.031,0.071,0.07,0.083,0.116
		c0.012,0.046,0.004,0.146-0.025,0.296l-0.535,2.86c-0.027,0.148-0.054,0.244-0.083,0.283c-0.028,0.037-0.067,0.064-0.12,0.078
		c-0.053,0.018-0.145,0.012-0.28-0.016l-0.204-0.037l-0.132,0.709l1.324,0.248l-0.157,0.846l0.869,0.162l0.157-0.844l0.495,0.092
		c0.022,0.004,0.042,0.004,0.064,0.012l-0.158,0.846l0.868,0.16l0.173-0.914c0.149-0.002,0.284-0.016,0.403-0.037
		c0.322-0.062,0.587-0.194,0.794-0.396c0.206-0.194,0.336-0.43,0.387-0.702c0.042-0.23,0.027-0.445-0.046-0.65
		c-0.074-0.207-0.194-0.377-0.358-0.514C7.693,20.207,7.521,20.104,7.294,20c0.237-0.035,0.435-0.099,0.593-0.188
		c0.159-0.09,0.289-0.207,0.389-0.344c0.101-0.141,0.168-0.295,0.199-0.463C8.52,18.773,8.493,18.545,8.392,18.325z M14.261,14.375
		l-0.896,4.479c-0.054,0.262-0.099,0.534-0.099,0.805c0,0.785,0.525,1.238,1.574,1.238c1.991,0,2.931-1.646,2.931-3.083
		c0-0.788-0.415-1.54-1.338-1.54c-0.542,0-1.04,0.235-1.365,0.625h-0.019l0.524-2.523L14.261,14.375L14.261,14.375z M14.739,18.573
		c0.155-0.77,0.615-1.248,1.086-1.248c0.397,0,0.577,0.334,0.577,0.76c0,0.776-0.541,1.826-1.292,1.826
		c-0.3,0-0.489-0.172-0.498-0.488c-0.009-0.188,0.027-0.342,0.045-0.486L14.739,18.573z M19.429,20.797l0.84-4.424h-1.301
		l-0.841,4.424H19.429z M19.78,15.823c0.417,0,0.769-0.271,0.769-0.732c0-0.389-0.271-0.641-0.649-0.641
		c-0.399,0-0.743,0.297-0.751,0.739C19.148,15.579,19.419,15.823,19.78,15.823z M21.701,15.444l-0.182,0.93H20.95l-0.181,0.987
		h0.562l-0.347,1.764c-0.062,0.334-0.09,0.579-0.09,0.823c0,0.553,0.373,0.949,1.149,0.949c0.279,0,0.604-0.037,0.769-0.101
		l0.154-1.021c-0.119,0.018-0.246,0.018-0.361,0.018c-0.281,0-0.373-0.152-0.373-0.371c0-0.152,0.037-0.379,0.072-0.562l0.301-1.5
		h0.939l0.189-0.987h-0.94l0.235-1.237L21.701,15.444z M26.885,19.666c-0.226,0.092-0.498,0.181-0.877,0.181
		c-0.488,0-0.867-0.308-0.867-0.912c0-0.833,0.568-1.619,1.5-1.619c0.262,0,0.442,0.045,0.599,0.106l0.315-0.993
		c-0.188-0.082-0.517-0.155-0.896-0.155c-1.685,0-2.886,1.23-2.886,2.807c0,1.146,0.769,1.809,1.863,1.809
		c0.523,0,0.978-0.092,1.258-0.225L26.885,19.666z M30.27,16.274c-1.574,0-2.641,1.258-2.641,2.795c0,1.098,0.75,1.828,1.872,1.828
		c1.539,0,2.642-1.187,2.642-2.804C32.143,17.088,31.456,16.274,30.27,16.274z M30.098,17.26c0.525,0,0.697,0.435,0.697,0.842
		c0,0.759-0.396,1.801-1.111,1.801c-0.453,0-0.707-0.346-0.707-0.859C28.969,18.356,29.348,17.26,30.098,17.26z M33.837,20.797
		l0.841-4.424h-1.303l-0.841,4.424H33.837z M34.189,15.823c0.416,0,0.771-0.271,0.771-0.732c0-0.389-0.271-0.641-0.651-0.641
		c-0.396,0-0.742,0.297-0.75,0.739C33.557,15.579,33.829,15.823,34.189,15.823z M36.234,20.797l0.373-1.963
		c0.181-0.977,0.68-1.512,1.104-1.512c0.326,0,0.437,0.219,0.437,0.525c0,0.162-0.021,0.343-0.045,0.498l-0.463,2.45h1.303
		l0.488-2.568c0.037-0.217,0.072-0.553,0.072-0.75c0-0.762-0.408-1.204-1.131-1.204c-0.588,0-1.139,0.254-1.557,0.832h-0.019
		l0.091-0.731h-1.156c-0.058,0.392-0.129,0.879-0.237,1.439l-0.562,2.982h1.301V20.797z M14.916,24.558
		c-0.021-0.117-0.03-0.312-0.03-0.519v-0.735c0-0.5-0.226-0.916-0.933-0.916c-0.386,0-0.677,0.104-0.824,0.188l0.121,0.426
		c0.139-0.088,0.369-0.16,0.585-0.16c0.326,0,0.386,0.16,0.386,0.271v0.031c-0.75-0.006-1.244,0.26-1.244,0.812
		c0,0.338,0.255,0.648,0.685,0.648c0.251,0,0.468-0.092,0.607-0.26h0.013l0.039,0.213H14.916L14.916,24.558z M14.244,23.786
		c0,0.039-0.004,0.078-0.013,0.111c-0.043,0.137-0.178,0.242-0.343,0.242c-0.147,0-0.26-0.082-0.26-0.25
		c0-0.259,0.269-0.341,0.615-0.334L14.244,23.786L14.244,23.786z M16.921,24.019c-0.1,0.039-0.221,0.063-0.377,0.063
		c-0.321,0-0.581-0.203-0.581-0.595c-0.005-0.344,0.222-0.592,0.567-0.592c0.174,0,0.291,0.028,0.369,0.063l0.104-0.489
		c-0.138-0.054-0.329-0.082-0.502-0.082c-0.79,0-1.214,0.508-1.214,1.127c0,0.668,0.438,1.086,1.123,1.086
		c0.252,0,0.473-0.045,0.59-0.097L16.921,24.019z M18.832,24.019c-0.1,0.039-0.221,0.063-0.378,0.063
		c-0.32,0-0.581-0.203-0.581-0.595c-0.005-0.344,0.221-0.592,0.567-0.592c0.173,0,0.291,0.028,0.369,0.063l0.104-0.489
		c-0.139-0.054-0.329-0.082-0.503-0.082c-0.79,0-1.214,0.508-1.214,1.127c0,0.668,0.438,1.086,1.124,1.086
		c0.251,0,0.473-0.045,0.59-0.097L18.832,24.019z M21.102,23.707c0.01-0.049,0.022-0.146,0.022-0.263
		c0-0.521-0.261-1.057-0.944-1.057c-0.739,0-1.072,0.594-1.072,1.131c0,0.664,0.412,1.082,1.131,1.082
		c0.286,0,0.551-0.045,0.768-0.133l-0.086-0.445c-0.178,0.058-0.36,0.086-0.585,0.086c-0.309,0-0.577-0.129-0.598-0.401H21.102
		L21.102,23.707z M19.731,23.256c0.017-0.18,0.13-0.43,0.408-0.43c0.303,0,0.373,0.269,0.373,0.43H19.731z M21.52,25.415h0.66
		v-1.053h0.008c0.098,0.139,0.295,0.242,0.552,0.242c0.473,0,0.963-0.363,0.963-1.137c0-0.677-0.417-1.08-0.882-1.08
		c-0.307,0-0.551,0.116-0.706,0.344h-0.009l-0.029-0.295h-0.573c0.009,0.192,0.019,0.434,0.019,0.711v2.268H21.52z M22.18,23.354
		c0-0.037,0.004-0.08,0.012-0.117c0.043-0.193,0.209-0.332,0.396-0.332c0.296,0,0.446,0.256,0.446,0.594c0,0.359-0.17,0.6-0.455,0.6
		c-0.19,0-0.345-0.135-0.388-0.312c-0.008-0.041-0.012-0.086-0.012-0.14V23.354z M24.207,21.976v0.461h-0.281v0.485h0.281v0.865
		c0,0.301,0.061,0.504,0.182,0.631c0.104,0.106,0.282,0.183,0.496,0.183c0.186,0,0.342-0.021,0.428-0.058l-0.004-0.498
		c-0.047,0.009-0.113,0.017-0.194,0.017c-0.199,0-0.261-0.117-0.261-0.373v-0.767h0.475v-0.485h-0.475v-0.605L24.207,21.976z
		 M27.561,23.707c0.008-0.049,0.021-0.146,0.021-0.263c0-0.521-0.26-1.057-0.945-1.057c-0.736,0-1.07,0.594-1.07,1.131
		c0,0.664,0.412,1.082,1.132,1.082c0.286,0,0.551-0.045,0.768-0.133l-0.087-0.445c-0.178,0.058-0.359,0.086-0.585,0.086
		c-0.31,0-0.575-0.129-0.599-0.401H27.561L27.561,23.707z M26.189,23.256c0.02-0.18,0.131-0.43,0.408-0.43
		c0.305,0,0.375,0.269,0.375,0.43H26.189z M29.376,21.479v1.147h-0.008c-0.097-0.147-0.3-0.239-0.56-0.239
		c-0.509,0-0.955,0.411-0.951,1.129c0,0.657,0.404,1.088,0.908,1.088c0.271,0,0.527-0.121,0.664-0.359h0.008l0.028,0.312h0.587
		c-0.011-0.144-0.019-0.396-0.019-0.634v-2.444H29.376L29.376,21.479z M29.376,23.612c0,0.057-0.004,0.104-0.017,0.15
		c-0.039,0.188-0.191,0.315-0.383,0.315c-0.272,0-0.451-0.226-0.451-0.584c0-0.334,0.156-0.604,0.457-0.604
		c0.203,0,0.347,0.146,0.386,0.324c0.004,0.033,0.008,0.082,0.008,0.117V23.612z M31.443,24.558h0.66v-1.259
		c0-0.049,0.004-0.104,0.021-0.147c0.048-0.115,0.156-0.229,0.33-0.229c0.247,0,0.342,0.189,0.342,0.469v1.166h0.66v-1.24
		c0-0.637-0.32-0.928-0.742-0.928c-0.121,0-0.246,0.029-0.343,0.082c-0.104,0.057-0.19,0.127-0.261,0.217h-0.008v-1.209h-0.66
		V24.558L31.443,24.558z M35.861,23.707c0.009-0.049,0.021-0.146,0.021-0.263c0-0.521-0.26-1.057-0.943-1.057
		c-0.738,0-1.072,0.594-1.072,1.131c0,0.664,0.412,1.082,1.132,1.082c0.287,0,0.551-0.045,0.769-0.133l-0.088-0.445
		c-0.177,0.058-0.359,0.086-0.584,0.086c-0.309,0-0.578-0.129-0.6-0.401H35.861L35.861,23.707z M34.492,23.256
		c0.017-0.18,0.13-0.43,0.406-0.43c0.305,0,0.373,0.269,0.373,0.43H34.492z M36.279,24.558h0.658v-1.076
		c0-0.051,0.006-0.104,0.016-0.146c0.043-0.205,0.208-0.334,0.449-0.334c0.074,0,0.132,0.01,0.18,0.018v-0.619
		c-0.047-0.01-0.078-0.01-0.141-0.01c-0.202,0-0.463,0.131-0.57,0.438h-0.02l-0.021-0.392h-0.567
		c0.008,0.183,0.016,0.388,0.016,0.699V24.558L36.279,24.558z M39.768,23.707c0.01-0.049,0.022-0.146,0.022-0.263
		c0-0.521-0.261-1.057-0.946-1.057c-0.736,0-1.07,0.594-1.07,1.131c0,0.664,0.412,1.082,1.131,1.082c0.287,0,0.553-0.045,0.77-0.133
		l-0.087-0.445c-0.178,0.058-0.358,0.086-0.585,0.086c-0.309,0-0.577-0.129-0.6-0.401H39.768L39.768,23.707z M38.396,23.256
		c0.019-0.18,0.129-0.43,0.408-0.43c0.303,0,0.373,0.269,0.373,0.43H38.396z"/>
</g>
<g>
</g>
<g>
</g>
<g>
</g>
<g>
</g>
<g>
</g>
<g>
</g>
<g>
</g>
<g>
</g>
<g>
</g>
<g>
</g>
<g>
</g>
<g>
</g>
<g>
</g>
<g>
</g>
<g>
</g>
</svg>
