<svg width="100" height="100" viewBox="0 0 100 100" fill="none" xmlns="http://www.w3.org/2000/svg">
<path d="M91.2109 8.00781H8.78906C3.94287 8.00781 0 11.9507 0 16.7969V63.8657C0 68.7119 3.94287 72.6547 8.78906 72.6547H51.4816V82.2762C51.4816 84.8923 52.5009 87.3528 54.3503 89.2029C56.2004 91.053 58.6609 92.0715 61.277 92.0715H82.4959C87.8975 92.0715 92.292 87.6778 92.292 82.2762V72.5861C96.6293 72.0512 100 68.3464 100 63.8657V16.7969C100 11.9507 96.0571 8.00781 91.2109 8.00781ZM82.4959 86.2122H61.277C60.2257 86.2122 59.2377 85.8032 58.4938 85.0594C57.7507 84.3163 57.341 83.3275 57.341 82.2762V70.6154C57.341 68.4448 59.1072 66.6786 61.277 66.6786H82.4959C84.6664 66.6786 86.4326 68.4448 86.4326 70.6154V82.2762C86.4326 84.4467 84.6664 86.2122 82.4959 86.2122ZM78.952 60.8192H64.8254V56.2408C64.8254 52.7374 67.9932 49.8878 71.8864 49.8878C75.7828 49.8878 78.952 52.7382 78.952 56.2408V60.8192ZM91.5092 66.7801C90.3091 63.9709 87.8319 61.8332 84.8122 61.0985V56.2408C84.8122 49.5071 79.0138 44.0285 71.8872 44.0285C64.7629 44.0285 58.9661 49.5071 58.9661 56.2408V61.097C55.9387 61.8332 53.4554 63.9771 52.2575 66.7953H8.78906C7.17392 66.7953 5.85938 65.4816 5.85938 63.8657V40.3595H94.1406V63.8657C94.1406 65.3809 92.9855 66.6306 91.5092 66.7801ZM8.78906 13.8672H91.2109C92.8261 13.8672 94.1406 15.1817 94.1406 16.7969V20.0478H5.85938V16.7969C5.85938 15.181 7.17392 13.8672 8.78906 13.8672ZM5.85938 25.9064H94.1406V34.5001H5.85938V25.9064Z" fill="white"/>
<path d="M22.7295 55.3528H15.5182C13.9 55.3528 12.5885 56.665 12.5885 58.2825C12.5885 59.9007 13.9 61.2122 15.5182 61.2122H22.7295C24.3477 61.2122 25.6592 59.9007 25.6592 58.2825C25.6592 56.665 24.3477 55.3528 22.7295 55.3528Z" fill="white"/>
<path d="M40.049 55.3528H32.8376C31.2202 55.3528 29.908 56.665 29.908 58.2825C29.908 59.9007 31.2202 61.2122 32.8376 61.2122H40.049C41.6671 61.2122 42.9786 59.9007 42.9786 58.2825C42.9786 56.665 41.6671 55.3528 40.049 55.3528Z" fill="white"/>
<path d="M71.8864 70.3347C69.1177 70.3347 66.8732 72.5793 66.8732 75.348C66.8732 76.8762 67.5583 78.2433 68.6356 79.1627C68.5379 79.4808 68.4845 79.818 68.4845 80.1682C68.4845 82.0466 70.0081 83.5702 71.8864 83.5702C73.7656 83.5702 75.2884 82.0466 75.2884 80.1682C75.2884 79.818 75.235 79.4808 75.1373 79.1627C76.2154 78.2433 76.8997 76.8762 76.8997 75.348C76.8997 72.5793 74.6552 70.3347 71.8864 70.3347Z" fill="white"/>
</svg>
