<svg height="512pt" viewBox="0 -41 512 512" width="512pt" xmlns="http://www.w3.org/2000/svg"><path d="m467 0h-422c-24.8125 0-45 20.1875-45 45v240.992188c0 24.8125 20.1875 45 45 45h218.585938v49.261718c0 13.394532 5.21875 25.992188 14.6875 35.464844 9.472656 9.472656 22.070312 14.6875 35.464843 14.6875h108.640625c27.65625 0 50.15625-22.496094 50.15625-50.152344v-49.613281c22.207032-2.738281 39.464844-21.707031 39.464844-44.648437v-240.992188c0-24.8125-20.1875-45-45-45zm-44.621094 400.40625h-108.640625c-5.382812 0-10.441406-2.09375-14.25-5.902344-3.804687-3.804687-5.902343-8.867187-5.902343-14.25v-59.703125c0-11.113281 9.042968-20.15625 20.152343-20.15625h108.640625c11.113282 0 20.15625 9.042969 20.15625 20.15625v59.703125c0 11.113282-9.042968 20.152344-20.15625 20.152344zm-18.144531-130.011719h-72.328125v-23.441406c0-17.9375 16.21875-32.527344 36.152344-32.527344 19.949218 0 36.175781 14.59375 36.175781 32.527344zm64.292969 30.519531c-6.144532-14.382812-18.828125-25.328124-34.289063-29.089843v-24.871094c0-34.476563-29.6875-62.527344-66.175781-62.527344-36.476562 0-66.15625 28.050781-66.15625 62.527344v24.863281c-15.5 3.769532-28.214844 14.746094-34.347656 29.175782h-222.558594c-8.269531 0-15-6.726563-15-15v-120.351563h452v120.351563c0 7.757812-5.914062 14.15625-13.472656 14.921874zm-423.527344-270.914062h422c8.269531 0 15 6.730469 15 15v16.644531h-452v-16.644531c0-8.273438 6.730469-15 15-15zm-15 61.640625h452v44h-452zm0 0"/><path d="m116.375 242.40625h-36.921875c-8.285156 0-15 6.71875-15 15 0 8.285156 6.714844 15 15 15h36.921875c8.285156 0 15-6.714844 15-15 0-8.28125-6.714844-15-15-15zm0 0"/><path d="m205.050781 242.40625h-36.921875c-8.28125 0-15 6.71875-15 15 0 8.285156 6.71875 15 15 15h36.921875c8.285157 0 15-6.714844 15-15 0-8.28125-6.714843-15-15-15zm0 0"/><path d="m368.058594 319.113281c-14.175782 0-25.667969 11.492188-25.667969 25.667969 0 7.824219 3.507813 14.824219 9.023437 19.53125-.5 1.628906-.773437 3.355469-.773437 5.148438 0 9.617187 7.800781 17.417968 17.417969 17.417968 9.621094 0 17.417968-7.800781 17.417968-17.417968 0-1.792969-.273437-3.519532-.773437-5.148438 5.519531-4.707031 9.023437-11.707031 9.023437-19.53125 0-14.175781-11.492187-25.667969-25.667968-25.667969zm0 0"/></svg>