<svg width="74" height="70" viewBox="0 0 74 70" fill="none" xmlns="http://www.w3.org/2000/svg">
<path d="M70.2828 36.7236C67.9596 34.6207 64.4538 33.1762 59.7657 32.3912C65.7357 30.2596 68.3593 26.6417 67.639 21.5369C67.3982 19.6858 66.6674 18.0815 65.4448 16.7217C64.2214 15.3616 62.5705 14.2681 60.4858 13.4409C58.4028 12.6127 56.1372 11.9822 53.6945 11.5475C51.251 11.1129 48.4458 10.7973 45.2806 10.6011V0H36.0265V10.3066C34.424 10.3066 31.9802 10.3346 28.6952 10.3907V0H19.4398V10.6011C18.1173 10.6293 16.1744 10.6436 13.6104 10.6436L0.870056 10.6011V17.5004H7.54039C10.5854 17.5004 12.3683 18.4542 12.889 20.361V32.4347C13.2902 32.4347 13.6104 32.4491 13.851 32.4771H12.889V49.3877C12.5689 50.8177 11.4072 51.5333 9.40367 51.5333H2.73377L0.870477 59.2319H12.8901C13.6514 59.2319 14.7525 59.239 16.1955 59.2517C17.6375 59.2658 18.7189 59.2729 19.4402 59.2729V70H28.6971V59.399C30.3794 59.4277 32.8232 59.4414 36.0284 59.4414V70H45.2827V59.2729C48.5687 59.1609 51.4832 58.9517 54.0262 58.6421C56.5704 58.3325 59.005 57.8495 61.3282 57.19C63.6512 56.5314 65.5941 55.7105 67.1564 54.7289C68.7195 53.7482 70.0104 52.4996 71.0339 50.9849C72.0539 49.4702 72.7058 47.7174 72.9853 45.7257C73.5084 41.8285 72.6065 38.8273 70.2828 36.7236ZM28.8752 17.9619C29.1558 17.9619 29.947 17.9548 31.2491 17.9407C32.5519 17.9262 33.6332 17.9124 34.4945 17.8982C35.3561 17.8844 36.518 17.9195 37.9809 18.0036C39.4432 18.0877 40.675 18.2001 41.6763 18.3401C42.6776 18.4801 43.7804 18.7116 44.9813 19.0341C46.1843 19.3564 47.1452 19.7492 47.8655 20.2118C48.5873 20.6745 49.1981 21.2637 49.698 21.9789C50.1994 22.694 50.4499 23.5143 50.4499 24.4396C50.4499 25.2249 50.2699 25.9403 49.9098 26.5857C49.5503 27.2306 49.008 27.7706 48.2877 28.2053C47.5672 28.6401 46.8246 29.0191 46.0632 29.3413C45.3027 29.6635 44.3302 29.9232 43.1487 30.1193C41.9674 30.3157 40.9358 30.47 40.0549 30.5819C39.1734 30.6942 38.0718 30.7716 36.7495 30.8134C35.427 30.8553 34.425 30.8839 33.7443 30.8977C33.0629 30.9116 32.1317 30.9116 30.9494 30.8977C29.7668 30.8839 29.0766 30.8765 28.8758 30.8765V17.9617H28.8752V17.9619ZM54.147 46.6096C53.7654 47.255 53.2754 47.8162 52.6748 48.2933C52.0732 48.7693 51.2816 49.1904 50.3005 49.5545C49.3196 49.9196 48.3671 50.2135 47.4464 50.4379C46.5244 50.6632 45.4122 50.8585 44.1113 51.0273C42.8075 51.1957 41.6664 51.3142 40.6839 51.3848C39.7027 51.4551 38.5313 51.5109 37.1686 51.5533C35.8069 51.5946 34.7446 51.616 33.9836 51.616C33.2223 51.616 32.2605 51.6083 31.0986 51.5946C29.9361 51.5815 29.1955 51.5744 28.8747 51.5744V37.3549C29.1949 37.3549 30.1465 37.3412 31.7295 37.3126C33.3126 37.2844 34.604 37.2712 35.6057 37.2712C36.6072 37.2712 37.99 37.3126 39.7535 37.3974C41.5153 37.4809 42.9978 37.6066 44.2008 37.7749C45.4023 37.9434 46.7134 38.2025 48.1368 38.5534C49.5587 38.9038 50.7111 39.3314 51.5929 39.8362C52.4744 40.3419 53.2152 40.9859 53.8159 41.7714C54.4181 42.5565 54.7185 43.4541 54.7185 44.464C54.7183 45.2501 54.5282 45.9641 54.147 46.6096Z" fill="white"/>
</svg>
