<svg id="Capa_1" enable-background="new 0 0 512 512" height="512" viewBox="0 0 512 512" width="512" xmlns="http://www.w3.org/2000/svg"><path d="m193.014 417.896c-35.005.001-76.83-7.962-121.357-33.283-1.332-.757-2.539-1.713-3.581-2.835-4.384-4.725-8.277-12.868-6.055-21.551 1.12-4.375 4.807-12.316 16.914-16.349 1.955-.651 4.022-.892 6.075-.709.32.027 25.023 2.029 49.369-4.318-1.404-1.019-2.81-2.083-4.203-3.193-24.126-19.211-27.803-38.434-26.333-51.68-10.373-12.134-29.319-37.926-25.69-60.862.79-4.991 2.847-11.225 7.797-16.967-1.615-4.044-3.398-8.961-4.995-14.385-6.062-20.592-6.561-38.196-1.485-52.324 4.637-12.904 13.976-22.672 27.008-28.249 6.055-2.589 13.091-.93 17.348 4.097.468.549 44.874 51.91 104.536 61.997 2.184-46.301 41.222-83.255 88.402-83.255.28 0 .556.001.837.004 17.636.164 42.149 2.335 60.236 17.944 7.646-1.4 20.097-4.245 29.324-9.134 6.767-3.584 14.537-3.899 21.32-.866 10.378 4.639 14.99 15.298 11.212 25.919-.365 1.026-.808 2.146-1.308 3.331.249.122.497.249.742.379 5.756 3.053 9.661 7.862 10.993 13.54.771 3.285 1.297 9.864-3.835 17.017-.32.446-.664.874-1.03 1.282l-29.898 33.271c.01 10.692-1.128 33.136-9.126 60.469-10.115 34.565-33.618 84.135-88.143 123.991-1.233.89-28.891 20.587-73.026 30.786-14.672 3.391-32.275 5.933-52.048 5.933zm-77.843-45.382c40.242 16.389 81.533 19.834 123.136 10.22 38.31-8.853 61.921-25.664 62.155-25.833 91.102-66.592 84.858-163.657 84.785-164.629-.31-4.083 1.063-8.114 3.8-11.16l18.081-20.121c-1.949-.889-3.723-2.203-5.175-3.903-4.101-4.799-4.757-11.653-1.643-17.144.497-.876 1.05-1.866 1.638-2.934-14.084 4.236-26.756 5.771-27.521 5.861-4.953.583-9.867-1.332-13.119-5.108-7.892-9.163-21.868-13.525-43.983-13.73-.186-.002-.372-.003-.558-.003-31.781 0-57.966 25.18-58.492 56.382-.062 3.667.225 7.347.853 10.938.776 4.443-.488 9-3.443 12.408s-7.309 5.309-11.795 5.166c-63.511-1.958-113.531-44.394-133.554-64.256-1.098 1.438-1.967 3.069-2.631 4.917-6.025 16.769 5.432 45.366 9.921 54.062 3.758 7.28.979 16.229-6.242 20.101-3.23 1.731-3.452 3.131-3.598 4.058-1.535 9.697 12.42 30.253 23.084 41.364 3.81 3.97 5.14 9.706 3.468 14.947-7.158 22.429 38.7 42.492 39.167 42.685 5.133 2.118 8.688 6.903 9.222 12.431.533 5.527-2.018 10.902-6.651 13.962-18.93 12.501-42.25 17.476-60.905 19.319zm311.526-214.156-.002.001c.001-.001.002-.001.002-.001z"/><path d="m497 512h-482c-8.284 0-15-6.716-15-15v-482c0-8.284 6.716-15 15-15h482c8.284 0 15 6.716 15 15v482c0 8.284-6.716 15-15 15zm-467-30h452v-452h-452z"/></svg>